<mxfile host="app.diagrams.net" modified="2024-03-01T03:42:03.840Z" agent="Mozilla/5.0 (Windows NT 10.0; Win64; x64) AppleWebKit/537.36 (KHTML, like Gecko) Chrome/122.0.0.0 Safari/537.36" etag="yIV1iWy2ywe4KKw_cUv3" version="23.1.8" type="github">
  <diagram name="Global" id="0783ab3e-0a74-02c8-0abd-f7b4e66b4bec">
    <mxGraphModel dx="1337" dy="753" grid="1" gridSize="10" guides="1" tooltips="1" connect="1" arrows="1" fold="1" page="1" pageScale="1" pageWidth="850" pageHeight="1100" background="none" math="0" shadow="0">
      <root>
        <mxCell id="0" />
        <mxCell id="1" parent="0" />
        <mxCell id="1c1d494c118603dd-1" value="Global" style="swimlane;html=1;childLayout=stackLayout;startSize=20;rounded=0;shadow=0;comic=0;labelBackgroundColor=none;strokeWidth=1;fontFamily=Verdana;fontSize=12;align=center;" parent="1" vertex="1">
          <mxGeometry x="40" y="20" width="750" height="990" as="geometry" />
        </mxCell>
        <mxCell id="1c1d494c118603dd-2" value="Level 0" style="swimlane;html=1;startSize=20;rounded=0;" parent="1c1d494c118603dd-1" vertex="1">
          <mxGeometry y="20" width="250" height="970" as="geometry" />
        </mxCell>
        <mxCell id="60571a20871a0731-4" value="" style="ellipse;whiteSpace=wrap;html=1;rounded=0;shadow=0;comic=0;labelBackgroundColor=none;strokeWidth=1;fillColor=#000000;fontFamily=Verdana;fontSize=12;align=center;" parent="1c1d494c118603dd-2" vertex="1">
          <mxGeometry x="80" y="40" width="40" height="40" as="geometry" />
        </mxCell>
        <mxCell id="1c1d494c118603dd-27" style="edgeStyle=orthogonalEdgeStyle;rounded=0;html=1;labelBackgroundColor=none;startArrow=none;startFill=0;startSize=5;endArrow=classicThin;endFill=1;endSize=5;jettySize=auto;orthogonalLoop=1;strokeWidth=1;fontFamily=Verdana;fontSize=12" parent="1c1d494c118603dd-2" source="60571a20871a0731-4" edge="1">
          <mxGeometry relative="1" as="geometry">
            <mxPoint x="100.00000000000023" y="109.99999999999989" as="targetPoint" />
          </mxGeometry>
        </mxCell>
        <mxCell id="JoJ3wICd0xqYexTisNsP-3" style="edgeStyle=none;curved=1;rounded=0;orthogonalLoop=1;jettySize=auto;html=1;entryX=0.5;entryY=0;entryDx=0;entryDy=0;fontSize=12;startSize=8;endSize=8;" edge="1" parent="1c1d494c118603dd-2" source="JoJ3wICd0xqYexTisNsP-1" target="JoJ3wICd0xqYexTisNsP-2">
          <mxGeometry relative="1" as="geometry" />
        </mxCell>
        <mxCell id="JoJ3wICd0xqYexTisNsP-1" value="Ordering" style="ellipse;whiteSpace=wrap;html=1;aspect=fixed;" vertex="1" parent="1c1d494c118603dd-2">
          <mxGeometry x="65" y="110" width="70" height="70" as="geometry" />
        </mxCell>
        <mxCell id="JoJ3wICd0xqYexTisNsP-5" style="edgeStyle=none;curved=1;rounded=0;orthogonalLoop=1;jettySize=auto;html=1;entryX=0.5;entryY=0;entryDx=0;entryDy=0;fontSize=12;startSize=8;endSize=8;" edge="1" parent="1c1d494c118603dd-2" source="JoJ3wICd0xqYexTisNsP-2" target="JoJ3wICd0xqYexTisNsP-4">
          <mxGeometry relative="1" as="geometry" />
        </mxCell>
        <mxCell id="JoJ3wICd0xqYexTisNsP-2" value="Procurement" style="ellipse;whiteSpace=wrap;html=1;aspect=fixed;" vertex="1" parent="1c1d494c118603dd-2">
          <mxGeometry x="60" y="220" width="80" height="80" as="geometry" />
        </mxCell>
        <mxCell id="JoJ3wICd0xqYexTisNsP-7" style="edgeStyle=none;curved=1;rounded=0;orthogonalLoop=1;jettySize=auto;html=1;entryX=0.5;entryY=0;entryDx=0;entryDy=0;fontSize=12;startSize=8;endSize=8;" edge="1" parent="1c1d494c118603dd-2" source="JoJ3wICd0xqYexTisNsP-4" target="JoJ3wICd0xqYexTisNsP-6">
          <mxGeometry relative="1" as="geometry" />
        </mxCell>
        <mxCell id="JoJ3wICd0xqYexTisNsP-4" value="Storage" style="ellipse;whiteSpace=wrap;html=1;aspect=fixed;" vertex="1" parent="1c1d494c118603dd-2">
          <mxGeometry x="70" y="350" width="60" height="60" as="geometry" />
        </mxCell>
        <mxCell id="JoJ3wICd0xqYexTisNsP-9" style="edgeStyle=none;curved=1;rounded=0;orthogonalLoop=1;jettySize=auto;html=1;entryX=0.5;entryY=0;entryDx=0;entryDy=0;fontSize=12;startSize=8;endSize=8;" edge="1" parent="1c1d494c118603dd-2" source="JoJ3wICd0xqYexTisNsP-6" target="JoJ3wICd0xqYexTisNsP-8">
          <mxGeometry relative="1" as="geometry" />
        </mxCell>
        <mxCell id="JoJ3wICd0xqYexTisNsP-6" value="Delivery" style="ellipse;whiteSpace=wrap;html=1;aspect=fixed;" vertex="1" parent="1c1d494c118603dd-2">
          <mxGeometry x="70" y="440" width="60" height="60" as="geometry" />
        </mxCell>
        <mxCell id="JoJ3wICd0xqYexTisNsP-8" value="Delivery" style="ellipse;whiteSpace=wrap;html=1;aspect=fixed;" vertex="1" parent="1c1d494c118603dd-2">
          <mxGeometry x="70" y="540" width="60" height="60" as="geometry" />
        </mxCell>
        <mxCell id="1c1d494c118603dd-3" value="Lane 2" style="swimlane;html=1;startSize=20;" parent="1c1d494c118603dd-1" vertex="1">
          <mxGeometry x="250" y="20" width="250" height="970" as="geometry" />
        </mxCell>
        <mxCell id="1c1d494c118603dd-4" value="Lane 3" style="swimlane;html=1;startSize=20;" parent="1c1d494c118603dd-1" vertex="1">
          <mxGeometry x="500" y="20" width="250" height="970" as="geometry" />
        </mxCell>
        <mxCell id="1c1d494c118603dd-45" style="edgeStyle=none;rounded=0;html=1;labelBackgroundColor=none;startArrow=none;startFill=0;startSize=5;endArrow=classicThin;endFill=1;endSize=5;jettySize=auto;orthogonalLoop=1;strokeWidth=1;fontFamily=Verdana;fontSize=12" parent="1c1d494c118603dd-4" target="60571a20871a0731-5" edge="1">
          <mxGeometry relative="1" as="geometry">
            <mxPoint x="120" y="840" as="sourcePoint" />
          </mxGeometry>
        </mxCell>
        <mxCell id="60571a20871a0731-5" value="" style="shape=mxgraph.bpmn.shape;html=1;verticalLabelPosition=bottom;labelBackgroundColor=#ffffff;verticalAlign=top;perimeter=ellipsePerimeter;outline=end;symbol=terminate;rounded=0;shadow=0;comic=0;strokeWidth=1;fontFamily=Verdana;fontSize=12;align=center;" parent="1c1d494c118603dd-4" vertex="1">
          <mxGeometry x="100" y="880" width="40" height="40" as="geometry" />
        </mxCell>
      </root>
    </mxGraphModel>
  </diagram>
</mxfile>
